<mxfile host="app.diagrams.net" modified="2023-08-24T11:56:23.190Z" agent="Mozilla/5.0 (Macintosh; Intel Mac OS X 10_15_7) AppleWebKit/537.36 (KHTML, like Gecko) Chrome/116.0.0.0 Safari/537.36" etag="O0bLZ-uuN7yi2yz5rIRo" version="21.6.9" type="device">
  <diagram name="Page-1" id="bDNz1WnYZZ8Fq1vF2CYH">
    <mxGraphModel dx="1022" dy="442" grid="1" gridSize="10" guides="1" tooltips="1" connect="1" arrows="1" fold="1" page="1" pageScale="1" pageWidth="827" pageHeight="1169" math="0" shadow="0">
      <root>
        <mxCell id="0" />
        <mxCell id="1" parent="0" />
        <mxCell id="Ec2N4qyuKFLP8VJ2_NY6-1" value="L.L.M" style="ellipse;shape=cloud;whiteSpace=wrap;html=1;" vertex="1" parent="1">
          <mxGeometry x="458" y="240" width="120" height="80" as="geometry" />
        </mxCell>
        <mxCell id="Ec2N4qyuKFLP8VJ2_NY6-2" value="INTERACTIONS CONTROLLER" style="rounded=0;whiteSpace=wrap;html=1;" vertex="1" parent="1">
          <mxGeometry x="478" y="90" width="120" height="60" as="geometry" />
        </mxCell>
        <mxCell id="Ec2N4qyuKFLP8VJ2_NY6-5" value="Workflow Controller" style="rounded=0;whiteSpace=wrap;html=1;" vertex="1" parent="1">
          <mxGeometry x="256" y="90" width="120" height="60" as="geometry" />
        </mxCell>
        <mxCell id="Ec2N4qyuKFLP8VJ2_NY6-6" value="File system" style="shape=cylinder3;whiteSpace=wrap;html=1;boundedLbl=1;backgroundOutline=1;size=15;" vertex="1" parent="1">
          <mxGeometry x="90" y="250" width="60" height="80" as="geometry" />
        </mxCell>
        <mxCell id="Ec2N4qyuKFLP8VJ2_NY6-7" value="Workspace" style="rounded=0;whiteSpace=wrap;html=1;" vertex="1" parent="1">
          <mxGeometry x="60" y="90" width="120" height="60" as="geometry" />
        </mxCell>
        <mxCell id="Ec2N4qyuKFLP8VJ2_NY6-24" value="" style="endArrow=classic;startArrow=classic;html=1;rounded=0;exitX=1;exitY=0.5;exitDx=0;exitDy=0;entryX=0;entryY=0.5;entryDx=0;entryDy=0;" edge="1" parent="1" source="Ec2N4qyuKFLP8VJ2_NY6-5" target="Ec2N4qyuKFLP8VJ2_NY6-2">
          <mxGeometry width="50" height="50" relative="1" as="geometry">
            <mxPoint x="440" y="230" as="sourcePoint" />
            <mxPoint x="490" y="180" as="targetPoint" />
            <Array as="points">
              <mxPoint x="400" y="120" />
            </Array>
          </mxGeometry>
        </mxCell>
        <mxCell id="Ec2N4qyuKFLP8VJ2_NY6-25" value="" style="endArrow=classic;startArrow=classic;html=1;rounded=0;exitX=1;exitY=0.5;exitDx=0;exitDy=0;entryX=0;entryY=0.5;entryDx=0;entryDy=0;" edge="1" parent="1" source="Ec2N4qyuKFLP8VJ2_NY6-7" target="Ec2N4qyuKFLP8VJ2_NY6-5">
          <mxGeometry width="50" height="50" relative="1" as="geometry">
            <mxPoint x="200" y="119.5" as="sourcePoint" />
            <mxPoint x="250" y="120" as="targetPoint" />
            <Array as="points" />
          </mxGeometry>
        </mxCell>
        <mxCell id="Ec2N4qyuKFLP8VJ2_NY6-26" value="" style="endArrow=classic;startArrow=classic;html=1;rounded=0;entryX=0.5;entryY=1;entryDx=0;entryDy=0;exitX=0.5;exitY=0;exitDx=0;exitDy=0;exitPerimeter=0;" edge="1" parent="1" source="Ec2N4qyuKFLP8VJ2_NY6-6" target="Ec2N4qyuKFLP8VJ2_NY6-7">
          <mxGeometry width="50" height="50" relative="1" as="geometry">
            <mxPoint x="440" y="230" as="sourcePoint" />
            <mxPoint x="490" y="180" as="targetPoint" />
            <Array as="points" />
          </mxGeometry>
        </mxCell>
        <mxCell id="Ec2N4qyuKFLP8VJ2_NY6-27" value="Read/write" style="text;html=1;align=center;verticalAlign=middle;resizable=0;points=[];autosize=1;strokeColor=none;fillColor=none;" vertex="1" parent="1">
          <mxGeometry x="110" y="190" width="80" height="30" as="geometry" />
        </mxCell>
        <mxCell id="Ec2N4qyuKFLP8VJ2_NY6-28" value="" style="endArrow=classic;startArrow=classic;html=1;rounded=0;entryX=0.5;entryY=1;entryDx=0;entryDy=0;exitX=0.5;exitY=0;exitDx=0;exitDy=0;exitPerimeter=0;" edge="1" parent="1">
          <mxGeometry width="50" height="50" relative="1" as="geometry">
            <mxPoint x="518" y="250" as="sourcePoint" />
            <mxPoint x="518" y="150" as="targetPoint" />
            <Array as="points" />
          </mxGeometry>
        </mxCell>
        <mxCell id="Ec2N4qyuKFLP8VJ2_NY6-30" value="Prompt/Response" style="text;html=1;align=center;verticalAlign=middle;resizable=0;points=[];autosize=1;strokeColor=none;fillColor=none;" vertex="1" parent="1">
          <mxGeometry x="508" y="190" width="120" height="30" as="geometry" />
        </mxCell>
      </root>
    </mxGraphModel>
  </diagram>
</mxfile>
